<svg width="152" height="40" fill="none" xmlns="http://www.w3.org/2000/svg"><path fill-rule="evenodd" clip-rule="evenodd" d="M5.755 21.461l13.261 13.263a1.73 1.73 0 002.442 0l13.261-13.263a1.73 1.73 0 000-2.442L21.458 5.757a1.73 1.73 0 00-2.442 0L5.755 19.019a1.73 1.73 0 000 2.442z" fill="#FBA51B"/><path fill-rule="evenodd" clip-rule="evenodd" d="M18.258 39.18L.819 21.741a2.81 2.81 0 010-3.966L18.258.336a2.796 2.796 0 013.957 0l17.439 17.44a2.81 2.81 0 010 3.965l-17.439 17.44a2.797 2.797 0 01-3.957 0zm3.213-.75l17.438-17.44a1.749 1.749 0 000-2.464L21.471 1.086a1.75 1.75 0 00-2.469 0L1.566 18.525a1.745 1.745 0 000 2.464l17.436 17.44c.68.68 1.789.68 2.469 0z" fill="#000"/><path d="M46.906 23.539l2.374-8.52h4.442l2.373 8.52h-2.678l-.427-1.644h-2.979l-.425 1.644h-2.68zm3.65-3.713h1.891l-.611-2.434h-.671l-.609 2.434zm5.611 3.713v-8.52h4.805c.901 0 1.602.199 2.105.596.504.4.755.889.755 1.473 0 .569-.235 1.038-.705 1.413-.187.145-.42.264-.694.354v.132c.308.072.591.195.853.365.566.39.847.955.847 1.691 0 .733-.281 1.329-.847 1.796-.571.466-1.38.7-2.434.7h-4.685zm2.736-5.293h1.337c.492 0 .732-.204.732-.608 0-.406-.24-.611-.732-.611h-1.337v1.219zm0 3.284h1.522c.303 0 .528-.067.68-.2a.66.66 0 00.235-.53.673.673 0 00-.235-.53c-.152-.131-.377-.199-.68-.199h-1.522v1.459zm5.182-4.077v-2.434h7.968v2.434H69.44v6.086h-2.738v-6.086h-2.617zM84.784 25v-3.773h.913l1.642-6.208h4.625l1.642 6.208h.911V25h-2.553v-1.461h-4.625V25h-2.555zm3.527-3.773h2.677l-.973-3.896h-.728l-.976 3.896zm6.999 2.312v-8.52h6.813v2.312h-4.076v.974h3.223v1.946h-3.223v.976h4.076v2.312H95.31z" fill="#000"/><path d="M102.012 23.539l2.249-8.52h4.504l2.25 8.52h-2.675l-1.522-6.086h-.607l-1.522 6.086h-2.677zm22.629-1.065c-.916-.874-1.369-1.937-1.369-3.195 0-1.258.453-2.322 1.369-3.193.911-.874 2.059-1.311 3.436-1.311 1.614 0 2.855.581 3.723 1.743.389.493.672 1.069.84 1.728h-2.799a1.378 1.378 0 00-.353-.513c-.383-.347-.853-.521-1.411-.521-.593 0-1.064.184-1.418.559-.353.373-.529.875-.529 1.508 0 .635.176 1.135.529 1.51.354.375.825.559 1.418.559.633 0 1.127-.21 1.485-.633.155-.169.267-.386.341-.644h2.799a5.757 5.757 0 01-.877 1.859c-.893 1.232-2.14 1.852-3.748 1.852-1.377 0-2.525-.437-3.436-1.308zm9.153 1.065v-8.52h8.214v8.52h-2.735v-6.086h-2.741v6.086h-2.738zm9.671 0v-8.52h7.301v2.069h-4.56v.851h2.01c1.033 0 1.842.255 2.418.769.578.51.865 1.186.865 2.031 0 .845-.287 1.521-.856 2.034-.574.511-1.384.766-2.427.766h-4.751zm2.741-2.129h1.702a.86.86 0 00.573-.188.615.615 0 00.217-.483.609.609 0 00-.217-.48.86.86 0 00-.573-.188h-1.702v1.339z" fill="#000"/><path fill-rule="evenodd" clip-rule="evenodd" d="M14.52 17.413l3.926-3.757v-.001l1.387-1.326v.001l.365-.349h.469l.416.396.002.003c.429-.182.796-.562.796-1.104.062-.742.254-1.342 1.029-1.298v1.648c0 .653-.217 1.333-.696 1.833l4.133 3.953h-.763l-3.776-3.613c-.42.276-.967.447-1.658.447-.443 0-.87-.101-1.248-.295l-3.62 3.462h-.762zm2.928-6.015c0-1.735 2.15-2.435 2.15-3.153v-.094h1.254v.145c0 1.01-1.64 1.657-1.64 3.04 0 .257.083.474.218.65l-1.355 1.297-.001.001c-.386-.476-.626-1.114-.626-1.886zm3.006 1.107l-.002-.002-.017-.017-.016.015-.003.002.038.002zm-1.106-4.64v-.703h1.759v.703h-1.759zm-.542-1.438a2.154 2.154 0 01-.512-.885l-1.039-3.04C18.17 1.504 19.102.27 20.375.3c1.194.028 2.119 1.217 2.825 2.204l-1.063 3.044a1.984 1.984 0 01-1.24 1.344h-1.361a1.946 1.946 0 01-.73-.465zm2.209-2.945a1.13 1.13 0 000-1.594 1.128 1.128 0 00-1.593 0 1.126 1.126 0 101.593 1.594zm52.204 19.887a4.901 4.901 0 010-6.933 4.904 4.904 0 016.934 0 4.907 4.907 0 010 6.933 4.906 4.906 0 01-6.934 0zm5.83-1.105a3.344 3.344 0 000-4.726 3.346 3.346 0 00-4.728 0 3.35 3.35 0 000 4.726 3.344 3.344 0 004.728 0z" fill="#000"/><path fill-rule="evenodd" clip-rule="evenodd" d="M74.844 21.742a2.682 2.682 0 01-.236-.27l.006-.003 1.357-.784c.115.109.251.18.391.229v1.571a2.61 2.61 0 01-1.518-.742zm2.166.74v-1.57c.14-.046.274-.118.393-.23l1.358.788h.001c-.072.095-.15.187-.235.273a2.635 2.635 0 01-1.517.742v-.002zm-2.723-3.595l1.364.785h-.003a1.07 1.07 0 000 .454l-1.361.785h-.002a2.628 2.628 0 01.002-2.024zm4.798 2.021l-1.362-.784c.032-.15.032-.301 0-.448h-.003l1.365-.788a2.614 2.614 0 010 2.02zm-2.075-2.016V17.32a2.59 2.59 0 011.517.74c.084.086.163.178.231.27l-1.36.784a1.058 1.058 0 00-.388-.22zm-1.033.22h-.003l-1.36-.785a2.591 2.591 0 011.748-1.009l.002 1.578-.002-.006c-.14.044-.271.119-.388.221h.003zm.407.488a.427.427 0 11.603.605.427.427 0 01-.603-.605zM8.731 24.441l1.382-5.028h2.271l-.451 1.751h1.393v-2.142H10.22l.575-2.088h4.667v7.505h-2.136V22.99h-1.861l-.372 1.451H8.731z" fill="#000"/><path d="M16.11 25.728v-3.323h.805l.791-2.992h2.273l-.76 2.992h2.36l-.857-3.383H17.81l.553-2.087h4.075l1.448 5.47h.803v3.323h-2.251v-1.287h-4.075v1.287H16.11z" fill="#000"/><path fill-rule="evenodd" clip-rule="evenodd" d="M25.366 24.439v-5.027h2.167v3.205h1.55l-.106-.923h2.228l.603 2.745h-6.442zm3.131-4.917l-.089-.5h-3.042l-.001-2.089h4.796l.694 2.589h-2.358zm83.641 4.042a4.9 4.9 0 116.931 0 4.9 4.9 0 01-6.931 0zm5.828-1.103a3.346 3.346 0 000-4.728 3.344 3.344 0 00-4.722 0 3.34 3.34 0 104.722 4.728z" fill="#000"/><path fill-rule="evenodd" clip-rule="evenodd" d="M113.762 21.938a2.124 2.124 0 01-.235-.27l1.362-.786c.115.107.251.182.392.227v1.573a2.6 2.6 0 01-1.519-.744zm2.164.74v-1.57a1.06 1.06 0 00.394-.227l1.358.784.002.003a2.59 2.59 0 01-1.754 1.013v-.003zm-2.721-3.595l1.363.786-.001-.001c-.032.15-.035.307-.003.454l-1.359.785a2.603 2.603 0 010-2.024zm4.795 2.02l-1.357-.783a1.15 1.15 0 00-.003-.45h-.002l1.362-.787a2.58 2.58 0 01.003 2.02H118zm-2.074-2.015v-1.571a2.568 2.568 0 011.751 1.008l-1.362.784a1.083 1.083 0 00-.389-.221zm-1.031.22l-.002-.001-1.364-.782a2.587 2.587 0 011.752-1.011v1.578-.004a1.05 1.05 0 00-.388.219l.002.002zm.407.488a.427.427 0 01.603.603.427.427 0 01-.603-.603z" fill="#000"/></svg>