<svg width="25" height="25" fill="none" xmlns="http://www.w3.org/2000/svg"><path d="M12.5 24.583C5.826 24.583.417 19.173.417 12.5.417 5.826 5.827.417 12.5.417c6.674 0 12.083 5.41 12.083 12.083 0 6.674-5.41 12.083-12.083 12.083zm0-2.416a9.667 9.667 0 100-19.334 9.667 9.667 0 000 19.334zm-1.208-6.042h2.416v2.417h-2.416v-2.417zm2.416-1.988v.78h-2.416v-1.813a1.208 1.208 0 011.208-1.208 1.814 1.814 0 001.402-2.962 1.812 1.812 0 00-3.18.794l-2.37-.475a4.23 4.23 0 115.356 4.884z" fill="#FBA51B"/></svg>