<svg width="14" height="14" fill="none" xmlns="http://www.w3.org/2000/svg"><path d="M5.024 6.011A7.917 7.917 0 007.99 8.976l.663-.929a.75.75 0 01.97-.222c1.06.58 2.232.928 3.437 1.023a.75.75 0 01.691.748v3.346a.75.75 0 01-.674.746c-.397.042-.798.062-1.201.062C5.455 13.75.25 8.545.25 2.125c0-.403.02-.804.061-1.202A.75.75 0 011.058.25h3.346a.75.75 0 01.748.69 8.567 8.567 0 001.023 3.438.75.75 0 01-.222.97l-.929.663zM3.133 5.52L4.558 4.5c-.404-.873-.681-1.8-.823-2.751H1.758a9.38 9.38 0 00-.007.375C1.75 7.717 6.283 12.25 11.875 12.25c.125 0 .25-.002.375-.008v-1.977a10.059 10.059 0 01-2.751-.823l-1.018 1.425a9.332 9.332 0 01-1.19-.563l-.044-.024A9.416 9.416 0 013.72 6.753l-.025-.043a9.331 9.331 0 01-.562-1.191z" fill="#FBA51B"/></svg>