<svg width="24" height="30" fill="none" xmlns="http://www.w3.org/2000/svg"><path d="M4.917 3.667V2.25A1.417 1.417 0 016.333.833h11.334a1.417 1.417 0 011.416 1.417v1.417h4.25c0 3.541-3.541 4.958-4.25 4.958v3.542h4.25c0 3.541-3.541 4.958-4.25 4.958v3.542h4.25c0 3.541-3.541 4.958-4.25 4.958v2.125a1.417 1.417 0 01-1.416 1.417H6.333a1.417 1.417 0 01-1.416-1.417v-2.125c-.709 0-4.25-1.417-4.25-4.958h4.25v-3.542c-.709 0-4.25-1.417-4.25-4.958h4.25V8.625c-.709 0-4.25-1.417-4.25-4.958h4.25zM12 26.333a2.833 2.833 0 100-5.666 2.833 2.833 0 000 5.666zm0-8.5a2.833 2.833 0 100-5.666 2.833 2.833 0 000 5.666zm0-8.5a2.833 2.833 0 100-5.666 2.833 2.833 0 000 5.666z" fill="#FBA51B"/></svg>