<svg width="30" height="31" viewBox="0 0 30 31" fill="none" xmlns="http://www.w3.org/2000/svg">
<path d="M3.66665 7.70262V25.87L10.8421 22.7958L19.3421 27.0458L26.3333 24.0467V5.88079L28.1792 5.09029C28.287 5.04408 28.4046 5.02536 28.5214 5.03581C28.6382 5.04625 28.7506 5.08554 28.8485 5.15014C28.9464 5.21473 29.0267 5.30263 29.0822 5.40592C29.1377 5.50921 29.1668 5.62468 29.1666 5.74196V25.9167L19.25 30.1667L10.75 25.9167L1.82073 29.7431C1.71294 29.7893 1.59537 29.8081 1.47856 29.7976C1.36175 29.7872 1.24936 29.7479 1.15148 29.6833C1.0536 29.6187 0.973288 29.5308 0.917756 29.4275C0.862225 29.3242 0.833209 29.2087 0.833313 29.0915V8.91671L3.66665 7.70262ZM21.0109 14.9276L15 20.9371L8.98906 14.9276C7.80046 13.7388 6.99106 12.2243 6.6632 10.5755C6.33534 8.92666 6.50375 7.21767 7.14714 5.66458C7.79053 4.11149 8.88 2.78406 10.2778 1.85013C11.6756 0.916204 13.3189 0.417725 15 0.417725C16.6811 0.417725 18.3244 0.916204 19.7222 1.85013C21.12 2.78406 22.2094 4.11149 22.8528 5.66458C23.4962 7.21767 23.6646 8.92666 23.3368 10.5755C23.0089 12.2243 22.1995 13.7388 21.0109 14.9276ZM15 16.9308L19.0063 12.923C19.799 12.1306 20.3389 11.1209 20.5576 10.0216C20.7764 8.92237 20.6643 7.7829 20.2355 6.74735C19.8066 5.7118 19.0803 4.82669 18.1484 4.20395C17.2165 3.58122 16.1208 3.24883 15 3.24883C13.8791 3.24883 12.7835 3.58122 11.8516 4.20395C10.9197 4.82669 10.1933 5.7118 9.7645 6.74735C9.33565 7.7829 9.22353 8.92237 9.44232 10.0216C9.66111 11.1209 10.201 12.1306 10.9936 12.923L15 16.9308Z" fill="#FBA51B"/>
</svg>
