<svg width="10" height="10" viewBox="0 0 10 10" fill="none" xmlns="http://www.w3.org/2000/svg">
<path d="M1 0H9C9.13261 0 9.25979 0.0526784 9.35355 0.146447C9.44732 0.240215 9.5 0.367392 9.5 0.5V9.5C9.5 9.63261 9.44732 9.75979 9.35355 9.85355C9.25979 9.94732 9.13261 10 9 10H1C0.867392 10 0.740215 9.94732 0.646447 9.85355C0.552678 9.75979 0.5 9.63261 0.5 9.5V0.5C0.5 0.367392 0.552678 0.240215 0.646447 0.146447C0.740215 0.0526784 0.867392 0 1 0ZM1.5 1V9H8.5V1H1.5ZM2.5 2H7.5V4H2.5V2ZM2.5 5H3.5V6H2.5V5ZM2.5 7H3.5V8H2.5V7ZM4.5 5H5.5V6H4.5V5ZM4.5 7H5.5V8H4.5V7ZM6.5 5H7.5V8H6.5V5Z" fill="#53565A"/>
</svg>
