<svg width="32" height="23" viewBox="0 0 32 23" fill="none" xmlns="http://www.w3.org/2000/svg">
<path d="M11.7004 18.4999C11.532 19.6818 10.9428 20.7633 10.0411 21.5457C9.13931 22.328 7.98554 22.7588 6.79169 22.7588C5.59784 22.7588 4.44407 22.328 3.54231 21.5457C2.64055 20.7633 2.05135 19.6818 1.88294 18.4999H0.416687V1.49992C0.416687 1.1242 0.565942 0.763861 0.831619 0.498184C1.0973 0.232508 1.45763 0.083252 1.83335 0.083252H21.6667C22.0424 0.083252 22.4027 0.232508 22.6684 0.498184C22.9341 0.763861 23.0834 1.1242 23.0834 1.49992V4.33325H27.3334L31.5834 10.0793V18.4999H28.7004C28.532 19.6818 27.9428 20.7633 27.0411 21.5457C26.1393 22.328 24.9855 22.7588 23.7917 22.7588C22.5978 22.7588 21.4441 22.328 20.5423 21.5457C19.6405 20.7633 19.0513 19.6818 18.8829 18.4999H11.7004ZM20.25 2.91659H3.25002V14.3208C3.80898 13.7501 4.49754 13.323 5.25709 13.0757C6.01663 12.8284 6.82469 12.7682 7.61247 12.9004C8.40026 13.0325 9.14445 13.3531 9.78172 13.8347C10.419 14.3163 10.9305 14.9448 11.2726 15.6666H19.3108C19.5488 15.1665 19.8675 14.7118 20.25 14.3208V2.91659ZM23.0834 11.4166H28.75V11.0128L25.9054 7.16659H23.0834V11.4166ZM23.7917 19.9166C24.3555 19.9166 24.8961 19.6926 25.2948 19.294C25.6934 18.8953 25.9174 18.3547 25.9174 17.7909C25.9174 17.2271 25.6934 16.6864 25.2948 16.2878C24.8961 15.8891 24.3555 15.6652 23.7917 15.6652C23.2279 15.6652 22.6872 15.8891 22.2886 16.2878C21.8899 16.6864 21.666 17.2271 21.666 17.7909C21.666 18.3547 21.8899 18.8953 22.2886 19.294C22.6872 19.6926 23.2279 19.9166 23.7917 19.9166ZM8.91669 17.7916C8.91669 17.5125 8.86172 17.2362 8.75493 16.9784C8.64814 16.7206 8.49161 16.4863 8.29429 16.289C8.09696 16.0917 7.86271 15.9351 7.60489 15.8283C7.34707 15.7216 7.07075 15.6666 6.79169 15.6666C6.51263 15.6666 6.2363 15.7216 5.97848 15.8283C5.72067 15.9351 5.48641 16.0917 5.28908 16.289C5.09176 16.4863 4.93523 16.7206 4.82844 16.9784C4.72165 17.2362 4.66669 17.5125 4.66669 17.7916C4.66669 18.3552 4.89057 18.8957 5.28908 19.2942C5.6876 19.6927 6.2281 19.9166 6.79169 19.9166C7.35527 19.9166 7.89577 19.6927 8.29429 19.2942C8.6928 18.8957 8.91669 18.3552 8.91669 17.7916Z" fill="#FBA51B"/>
</svg>
