<svg width="11" height="10" viewBox="0 0 11 10" fill="none" xmlns="http://www.w3.org/2000/svg">
<path d="M3.26753 0.5H10.5C10.6326 0.5 10.7598 0.552678 10.8536 0.646447C10.9473 0.740215 11 0.867392 11 1V9C11 9.13261 10.9473 9.25979 10.8536 9.35355C10.7598 9.44732 10.6326 9.5 10.5 9.5H3.26753C3.18523 9.50001 3.1042 9.47971 3.03164 9.4409C2.95907 9.40208 2.8972 9.34596 2.85153 9.2775L0.185027 5.2775C0.130207 5.19533 0.100952 5.09877 0.100952 5C0.100952 4.90123 0.130207 4.80467 0.185027 4.7225L2.85153 0.7225C2.8972 0.654042 2.95907 0.597916 3.03164 0.559103C3.1042 0.520289 3.18523 0.499988 3.26753 0.5ZM3.53503 1.5L1.20203 5L3.53503 8.5H10V1.5H3.53503ZM6.50003 4.293L7.91403 2.8785L8.62153 3.586L7.20703 5L8.62153 6.414L7.91403 7.1215L6.50003 5.707L5.08603 7.1215L4.37853 6.414L5.79303 5L4.37853 3.586L5.08603 2.8785L6.50003 4.293Z" fill="white"/>
</svg>
