<svg width="152" height="40" viewBox="0 0 152 40" fill="none" xmlns="http://www.w3.org/2000/svg">
<path fill-rule="evenodd" clip-rule="evenodd" d="M5.75499 21.461L19.016 34.724C19.689 35.397 20.785 35.397 21.458 34.724L34.719 21.461C35.392 20.788 35.392 19.692 34.719 19.019L21.458 5.75699C20.785 5.08399 19.689 5.08399 19.016 5.75699L5.75499 19.019C5.08199 19.692 5.08199 20.788 5.75499 21.461Z" fill="#FBA51B"/>
<path fill-rule="evenodd" clip-rule="evenodd" d="M18.258 39.1802L0.819 21.7413C-0.273 20.6463 -0.273 18.8703 0.819 17.7753L18.258 0.33625C19.35 -0.757751 21.124 -0.757751 22.215 0.33625L39.654 17.7753C40.746 18.8703 40.746 20.6463 39.654 21.7413L22.215 39.1802C21.124 40.2732 19.35 40.2732 18.258 39.1802ZM21.471 38.4293L38.909 20.9903C39.586 20.3093 39.586 19.2043 38.909 18.5263L21.471 1.08525C20.791 0.405251 19.682 0.405251 19.002 1.08525L1.566 18.5263C0.887 19.2043 0.887 20.3093 1.566 20.9903L19.002 38.4293C19.682 39.1102 20.791 39.1102 21.471 38.4293Z" fill="black"/>
<path d="M46.906 23.539L49.28 15.019H53.722L56.095 23.539H53.417L52.99 21.895H50.011L49.586 23.539H46.906ZM50.556 19.826H52.447L51.836 17.392H51.165L50.556 19.826Z" fill="black"/>
<path d="M56.167 23.539V15.019H60.972C61.873 15.019 62.574 15.218 63.077 15.615C63.581 16.015 63.832 16.504 63.832 17.088C63.832 17.657 63.597 18.126 63.127 18.501C62.94 18.646 62.707 18.765 62.433 18.855V18.987C62.741 19.059 63.024 19.182 63.286 19.352C63.852 19.742 64.133 20.307 64.133 21.043C64.133 21.776 63.852 22.372 63.286 22.839C62.715 23.305 61.906 23.539 60.852 23.539H56.167ZM58.903 18.246H60.24C60.732 18.246 60.972 18.042 60.972 17.638C60.972 17.232 60.732 17.027 60.24 17.027H58.903V18.246ZM58.903 21.53H60.425C60.728 21.53 60.953 21.463 61.105 21.33C61.26 21.2 61.34 21.021 61.34 20.8C61.34 20.582 61.26 20.406 61.105 20.27C60.953 20.139 60.728 20.071 60.425 20.071H58.903V21.53Z" fill="black"/>
<path d="M64.085 17.453V15.019H72.053V17.453H69.44V23.539H66.702V17.453H64.085Z" fill="black"/>
<path d="M84.784 25V21.227H85.697L87.339 15.019H91.964L93.606 21.227H94.517V25H91.964V23.539H87.339V25H84.784ZM88.311 21.227H90.988L90.015 17.331H89.287L88.311 21.227Z" fill="black"/>
<path d="M95.31 23.539V15.019H102.123V17.331H98.047V18.305H101.27V20.251H98.047V21.227H102.123V23.539H95.31Z" fill="black"/>
<path d="M102.012 23.539L104.261 15.019H108.765L111.015 23.539H108.34L106.818 17.453H106.211L104.689 23.539H102.012Z" fill="black"/>
<path d="M124.641 22.474C123.725 21.6 123.272 20.537 123.272 19.279C123.272 18.021 123.725 16.957 124.641 16.086C125.552 15.212 126.7 14.775 128.077 14.775C129.691 14.775 130.932 15.356 131.8 16.518C132.189 17.011 132.472 17.587 132.64 18.246H129.841C129.753 18.034 129.634 17.862 129.488 17.733C129.105 17.386 128.635 17.212 128.077 17.212C127.484 17.212 127.013 17.396 126.659 17.771C126.306 18.144 126.13 18.646 126.13 19.279C126.13 19.914 126.306 20.414 126.659 20.789C127.013 21.164 127.484 21.348 128.077 21.348C128.71 21.348 129.204 21.138 129.562 20.715C129.717 20.546 129.829 20.329 129.903 20.071H132.702C132.514 20.759 132.221 21.379 131.825 21.93C130.932 23.162 129.685 23.782 128.077 23.782C126.7 23.782 125.552 23.345 124.641 22.474Z" fill="black"/>
<path d="M133.794 23.539V15.019H142.008V23.539H139.273V17.453H136.532V23.539H133.794Z" fill="black"/>
<path d="M143.465 23.539V15.019H150.766V17.088H146.206V17.939H148.216C149.249 17.939 150.058 18.194 150.634 18.708C151.212 19.218 151.499 19.894 151.499 20.739C151.499 21.584 151.212 22.26 150.643 22.773C150.069 23.284 149.259 23.539 148.216 23.539H143.465ZM146.206 21.41H147.908C148.143 21.41 148.334 21.346 148.481 21.222C148.626 21.094 148.698 20.934 148.698 20.739C148.698 20.546 148.626 20.385 148.481 20.259C148.334 20.135 148.143 20.071 147.908 20.071H146.206V21.41Z" fill="black"/>
<path fill-rule="evenodd" clip-rule="evenodd" d="M14.52 17.413L18.446 13.656V13.655L19.833 12.329V12.33L20.198 11.981H20.667L21.083 12.377L21.085 12.38C21.514 12.198 21.881 11.818 21.881 11.276C21.943 10.534 22.135 9.93399 22.91 9.97799V11.626C22.91 12.279 22.693 12.959 22.214 13.459L26.347 17.412H25.584L21.808 13.799C21.388 14.075 20.841 14.246 20.15 14.246C19.707 14.246 19.28 14.145 18.902 13.951L15.282 17.413H14.52ZM17.448 11.398C17.448 9.66299 19.598 8.96299 19.598 8.24499V8.151H20.852V8.296C20.852 9.306 19.212 9.95299 19.212 11.336C19.212 11.593 19.295 11.81 19.43 11.986L18.075 13.283L18.074 13.284C17.688 12.808 17.448 12.17 17.448 11.398ZM20.454 12.505L20.452 12.503L20.435 12.486L20.419 12.501L20.416 12.503C20.429 12.504 20.441 12.504 20.454 12.505ZM19.348 7.865V7.16199H21.107V7.865H19.348ZM18.806 6.42699C18.57 6.18299 18.389 5.86999 18.294 5.54199L17.255 2.50199C18.17 1.50399 19.102 0.269993 20.375 0.299994C21.569 0.327993 22.494 1.517 23.2 2.504L22.137 5.54799C22.049 5.87099 21.877 6.17499 21.626 6.42699C21.414 6.64199 21.163 6.79499 20.897 6.89199H19.536C19.268 6.79599 19.019 6.64199 18.806 6.42699ZM21.015 3.48199C21.454 3.04099 21.454 2.32799 21.015 1.88799C20.576 1.44899 19.861 1.44899 19.422 1.88799C18.983 2.32899 18.983 3.04199 19.422 3.48199C19.861 3.92199 20.576 3.92199 21.015 3.48199Z" fill="black"/>
<path fill-rule="evenodd" clip-rule="evenodd" d="M73.219 23.3685C71.304 21.4535 71.304 18.3475 73.219 16.4355C75.132 14.5215 78.239 14.5215 80.153 16.4355C82.065 18.3475 82.065 21.4535 80.153 23.3685C78.239 25.2815 75.132 25.2815 73.219 23.3685ZM79.049 22.2635C80.353 20.9585 80.353 18.8405 79.049 17.5375C77.744 16.2335 75.627 16.2335 74.321 17.5375C73.02 18.8405 73.02 20.9585 74.321 22.2635C75.627 23.5685 77.744 23.5685 79.049 22.2635Z" fill="black"/>
<path fill-rule="evenodd" clip-rule="evenodd" d="M74.844 21.7425C74.759 21.6565 74.677 21.5645 74.608 21.4725L74.614 21.4695L75.971 20.6855C76.086 20.7935 76.222 20.8655 76.362 20.9135V22.4825V22.4855C75.809 22.4175 75.27 22.1655 74.844 21.7425ZM77.01 22.4825V20.9115C77.15 20.8655 77.284 20.7935 77.403 20.6825L78.761 21.4695H78.762C78.69 21.5645 78.612 21.6565 78.527 21.7425C78.099 22.1655 77.562 22.4145 77.01 22.4855V22.4825ZM74.287 18.8865L75.651 19.6725H75.648C75.616 19.8225 75.615 19.9745 75.648 20.1265L74.287 20.9115H74.285C74.015 20.2635 74.016 19.5325 74.287 18.8865ZM79.085 20.9085L77.723 20.1245C77.755 19.9745 77.755 19.8225 77.723 19.6755H77.72L79.085 18.8875C79.356 19.5325 79.356 20.2635 79.085 20.9085ZM77.01 18.8925V17.3185C77.562 17.3865 78.099 17.6325 78.527 18.0595C78.611 18.1455 78.69 18.2375 78.758 18.3295L77.398 19.1135C77.282 19.0085 77.149 18.9375 77.01 18.8925ZM75.977 19.1115H75.974L74.614 18.3265C74.681 18.2325 74.759 18.1455 74.844 18.0595C75.27 17.6325 75.809 17.3865 76.362 17.3175L76.364 18.8965L76.362 18.8905C76.222 18.9345 76.091 19.0085 75.974 19.1115H75.977Z" fill="black"/>
<path fill-rule="evenodd" clip-rule="evenodd" d="M76.384 19.5995C76.55 19.4335 76.82 19.4335 76.987 19.5995C77.153 19.7665 77.153 20.0365 76.987 20.2025C76.82 20.3695 76.55 20.3695 76.384 20.2025C76.218 20.0365 76.218 19.7665 76.384 19.5995Z" fill="black"/>
<path fill-rule="evenodd" clip-rule="evenodd" d="M8.73099 24.441L10.113 19.413H12.384L11.933 21.164H13.326V19.022H10.22L10.795 16.934H15.462V24.439H13.326V22.99H11.465L11.093 24.441H8.73099Z" fill="black"/>
<path d="M16.11 25.728V22.405H16.915L17.706 19.413H19.979L19.219 22.405H21.579L20.722 19.022H17.81L18.363 16.935H22.438L23.886 22.405H24.689V25.728H22.438V24.441H18.363V25.728H16.11Z" fill="black"/>
<path fill-rule="evenodd" clip-rule="evenodd" d="M25.366 24.439V19.412H27.533V22.617H29.083L28.977 21.694H31.205L31.808 24.439H25.366ZM28.497 19.522L28.408 19.022H25.366L25.365 16.933H30.161L30.855 19.522H28.497Z" fill="black"/>
<path fill-rule="evenodd" clip-rule="evenodd" d="M112.138 23.5638C110.225 21.6488 110.225 18.5457 112.138 16.6307C114.048 14.7167 117.157 14.7167 119.069 16.6307C120.983 18.5457 120.983 21.6488 119.069 23.5638C117.157 25.4787 114.048 25.4787 112.138 23.5638ZM117.966 22.4607C119.27 21.1557 119.27 19.0388 117.966 17.7328C116.661 16.4318 114.546 16.4318 113.244 17.7328C111.939 19.0388 111.939 21.1557 113.244 22.4607C114.546 23.7637 116.661 23.7637 117.966 22.4607Z" fill="black"/>
<path fill-rule="evenodd" clip-rule="evenodd" d="M113.762 21.9377C113.675 21.8527 113.596 21.7627 113.527 21.6677L114.889 20.8817C115.004 20.9887 115.14 21.0637 115.281 21.1087V22.6777V22.6817C114.727 22.6127 114.188 22.3637 113.762 21.9377ZM115.926 22.6777V21.1087C116.071 21.0607 116.203 20.9887 116.32 20.8807L117.678 21.6647L117.68 21.6677C117.609 21.7597 117.531 21.8517 117.444 21.9377C117.017 22.3637 116.481 22.6127 115.926 22.6807V22.6777ZM113.205 19.0827L114.568 19.8687L114.567 19.8677C114.535 20.0177 114.532 20.1747 114.564 20.3217L113.205 21.1067C112.932 20.4587 112.932 19.7277 113.205 19.0827ZM118 21.1037L116.643 20.3197C116.671 20.1697 116.671 20.0177 116.64 19.8707H116.638L118 19.0827C118.276 19.7297 118.276 20.4587 118.003 21.1037H118ZM115.926 19.0877V17.5167C116.481 17.5827 117.017 17.8297 117.444 18.2567C117.53 18.3407 117.607 18.4327 117.677 18.5247L116.315 19.3087C116.199 19.2057 116.066 19.1327 115.926 19.0877ZM114.895 19.3087L114.893 19.3067L113.529 18.5247C113.601 18.4327 113.677 18.3407 113.762 18.2567C114.188 17.8297 114.727 17.5817 115.281 17.5137V19.0917V19.0877C115.14 19.1327 115.007 19.2037 114.893 19.3067L114.895 19.3087Z" fill="black"/>
<path fill-rule="evenodd" clip-rule="evenodd" d="M115.302 19.7958C115.468 19.6298 115.738 19.6298 115.905 19.7958C116.071 19.9628 116.071 20.2328 115.905 20.3988C115.738 20.5648 115.468 20.5648 115.302 20.3988C115.136 20.2328 115.136 19.9628 115.302 19.7958Z" fill="black"/>
</svg>
