<svg width="25" height="25" viewBox="0 0 25 25" fill="none" xmlns="http://www.w3.org/2000/svg">
<path d="M12.5001 24.5834C5.82646 24.5834 0.416748 19.1736 0.416748 12.5C0.416748 5.8264 5.82646 0.416687 12.5001 0.416687C19.1737 0.416687 24.5834 5.8264 24.5834 12.5C24.5834 19.1736 19.1737 24.5834 12.5001 24.5834ZM12.5001 22.1667C15.0638 22.1667 17.5226 21.1482 19.3354 19.3354C21.1483 17.5225 22.1667 15.0638 22.1667 12.5C22.1667 9.93626 21.1483 7.47751 19.3354 5.66466C17.5226 3.8518 15.0638 2.83335 12.5001 2.83335C9.93632 2.83335 7.47757 3.8518 5.66472 5.66466C3.85186 7.47751 2.83341 9.93626 2.83341 12.5C2.83341 15.0638 3.85186 17.5225 5.66472 19.3354C7.47757 21.1482 9.93632 22.1667 12.5001 22.1667ZM11.2917 16.125H13.7084V18.5417H11.2917V16.125ZM13.7084 14.1373V14.9167H11.2917V13.1042C11.2917 12.7837 11.4191 12.4764 11.6457 12.2498C11.8723 12.0232 12.1796 11.8959 12.5001 11.8959C12.8433 11.8958 13.1795 11.7983 13.4696 11.6147C13.7596 11.4311 13.9915 11.1689 14.1383 10.8586C14.2851 10.5483 14.3408 10.2027 14.2989 9.86204C14.257 9.52135 14.1192 9.19956 13.9015 8.93412C13.6839 8.66868 13.3954 8.47051 13.0695 8.36265C12.7436 8.25479 12.3938 8.24169 12.0608 8.32487C11.7277 8.40805 11.4252 8.58409 11.1883 8.83251C10.9514 9.08092 10.7899 9.3915 10.7226 9.7281L8.35187 9.25323C8.49885 8.51866 8.83824 7.8363 9.33536 7.2759C9.83248 6.71549 10.4695 6.29714 11.1813 6.06362C11.8931 5.83009 12.6541 5.78977 13.3866 5.94676C14.1191 6.10376 14.7968 6.45245 15.3503 6.95718C15.9039 7.46192 16.3135 8.10459 16.5373 8.81951C16.761 9.53443 16.791 10.296 16.624 11.0262C16.457 11.7565 16.099 12.4293 15.5868 12.9759C15.0745 13.5225 14.4263 13.9233 13.7084 14.1373Z" fill="#FBA51B"/>
</svg>
