<svg width="10" height="10" viewBox="0 0 10 10" fill="none" xmlns="http://www.w3.org/2000/svg">
<path d="M0 0.9965C0.000915022 0.865189 0.0534501 0.739509 0.146256 0.646609C0.239063 0.553709 0.36469 0.501047 0.496 0.5H9.504C9.778 0.5 10 0.7225 10 0.9965V9.0035C9.99909 9.13481 9.94655 9.26049 9.85374 9.35339C9.76094 9.44629 9.63531 9.49895 9.504 9.5H0.496C0.364407 9.49987 0.238248 9.4475 0.145245 9.3544C0.052241 9.2613 -6.67276e-08 9.13509 0 9.0035V0.9965ZM1 1.5V8.5H9V1.5H1ZM2 2.5H5V5.5H2V2.5ZM3 3.5V4.5H4V3.5H3ZM2 6.5H8V7.5H2V6.5ZM6 2.5H8V3.5H6V2.5ZM6 4.5H8V5.5H6V4.5Z" fill="white"/>
</svg>
