<svg width="16" height="19" viewBox="0 0 16 19" fill="none" xmlns="http://www.w3.org/2000/svg">
<path d="M8.66666 11.8767V18.3333H0.333328C0.33307 17.3157 0.565763 16.3116 1.01358 15.3978C1.46139 14.4841 2.11244 13.6849 2.91684 13.0617C3.72124 12.4384 4.65764 12.0076 5.65429 11.8022C6.65094 11.5968 7.68138 11.6223 8.66666 11.8767ZM7 10.8333C4.23749 10.8333 2 8.59583 2 5.83333C2 3.07083 4.23749 0.833328 7 0.833328C9.7625 0.833328 12 3.07083 12 5.83333C12 8.59583 9.7625 10.8333 7 10.8333ZM12.4883 14.1667L10.9642 12.6433L12.1433 11.4642L15.6783 15L12.1433 18.5358L10.9642 17.3567L12.4883 15.8333H9.5V14.1667H12.4883Z" fill="#FBA51B"/>
</svg>
