<svg width="10" height="10" viewBox="0 0 10 10" fill="none" xmlns="http://www.w3.org/2000/svg">
<path d="M0.5 0.5H9.5C9.63261 0.5 9.75979 0.552678 9.85355 0.646447C9.94732 0.740215 10 0.867392 10 1V9C10 9.13261 9.94732 9.25979 9.85355 9.35355C9.75979 9.44732 9.63261 9.5 9.5 9.5H0.5C0.367392 9.5 0.240215 9.44732 0.146447 9.35355C0.0526784 9.25979 0 9.13261 0 9V1C0 0.867392 0.0526784 0.740215 0.146447 0.646447C0.240215 0.552678 0.367392 0.5 0.5 0.5ZM9 4.5H1V8.5H9V4.5ZM9 3.5V1.5H1V3.5H9ZM6 6.5H8V7.5H6V6.5Z" fill="white"/>
</svg>
