<svg width="24" height="30" viewBox="0 0 24 30" fill="none" xmlns="http://www.w3.org/2000/svg">
<path d="M4.91669 3.66671V2.25004C4.91669 1.87432 5.06594 1.51398 5.33162 1.24831C5.5973 0.982629 5.95763 0.833374 6.33335 0.833374H17.6667C18.0424 0.833374 18.4027 0.982629 18.6684 1.24831C18.9341 1.51398 19.0834 1.87432 19.0834 2.25004V3.66671H23.3334C23.3334 7.20837 19.7917 8.62504 19.0834 8.62504V12.1667H23.3334C23.3334 15.7084 19.7917 17.125 19.0834 17.125V20.6667H23.3334C23.3334 24.2084 19.7917 25.625 19.0834 25.625V27.75C19.0834 28.1258 18.9341 28.4861 18.6684 28.7518C18.4027 29.0175 18.0424 29.1667 17.6667 29.1667H6.33335C5.95763 29.1667 5.5973 29.0175 5.33162 28.7518C5.06594 28.4861 4.91669 28.1258 4.91669 27.75V25.625C4.20835 25.625 0.666687 24.2084 0.666687 20.6667H4.91669V17.125C4.20835 17.125 0.666687 15.7084 0.666687 12.1667H4.91669V8.62504C4.20835 8.62504 0.666687 7.20837 0.666687 3.66671H4.91669ZM12 26.3334C12.7515 26.3334 13.4721 26.0349 14.0035 25.5035C14.5348 24.9722 14.8334 24.2515 14.8334 23.5C14.8334 22.7486 14.5348 22.0279 14.0035 21.4966C13.4721 20.9652 12.7515 20.6667 12 20.6667C11.2486 20.6667 10.5279 20.9652 9.99655 21.4966C9.4652 22.0279 9.16669 22.7486 9.16669 23.5C9.16669 24.2515 9.4652 24.9722 9.99655 25.5035C10.5279 26.0349 11.2486 26.3334 12 26.3334ZM12 17.8334C12.7515 17.8334 13.4721 17.5349 14.0035 17.0035C14.5348 16.4722 14.8334 15.7515 14.8334 15C14.8334 14.2486 14.5348 13.5279 14.0035 12.9966C13.4721 12.4652 12.7515 12.1667 12 12.1667C11.2486 12.1667 10.5279 12.4652 9.99655 12.9966C9.4652 13.5279 9.16669 14.2486 9.16669 15C9.16669 15.7515 9.4652 16.4722 9.99655 17.0035C10.5279 17.5349 11.2486 17.8334 12 17.8334ZM12 9.33337C12.7515 9.33337 13.4721 9.03486 14.0035 8.50351C14.5348 7.97216 14.8334 7.25149 14.8334 6.50004C14.8334 5.74859 14.5348 5.02792 14.0035 4.49657C13.4721 3.96522 12.7515 3.66671 12 3.66671C11.2486 3.66671 10.5279 3.96522 9.99655 4.49657C9.4652 5.02792 9.16669 5.74859 9.16669 6.50004C9.16669 7.25149 9.4652 7.97216 9.99655 8.50351C10.5279 9.03486 11.2486 9.33337 12 9.33337Z" fill="#FBA51B"/>
</svg>
